<?xml version="1.0" encoding="UTF-8"?>
<svg width="18px" height="15px" viewBox="0 0 18 15" version="1.1" xmlns="http://www.w3.org/2000/svg" xmlns:xlink="http://www.w3.org/1999/xlink">
  <path d="M1.60333333,14.9766667 C1.36222102,14.9766667 1.17361179,14.9222228 1.0375,14.8133333 C0.901388208,14.7044439 0.833333333,14.5566676 0.833333333,14.37 C0.833333333,14.2222215 0.883888383,14.0627786 0.985,13.8916667 L8.41666667,1.01166667 C8.59555645,0.708331817 8.80555435,0.556666667 9.04666667,0.556666667 C9.28777898,0.556666667 9.49777688,0.708331817 9.67666667,1.01166667 L17.1083333,13.8916667 C17.209445,14.0627786 17.26,14.2222215 17.26,14.37 C17.26,14.5566676 17.1919451,14.7044439 17.0558333,14.8133333 C16.9197215,14.9222228 16.7311123,14.9766667 16.49,14.9766667 L1.60333333,14.9766667 Z M8.685,10.31 L9.315,10.31 C9.47055633,10.31 9.61638821,10.2536117 9.7525,10.1408333 C9.88861179,10.028055 9.97222207,9.89388967 10.0033333,9.73833333 L10.68,6.215 C10.6877778,6.19166655 10.6916667,6.1566669 10.6916667,6.11 C10.6916667,6.02444402 10.6722224,5.94472259 10.6333333,5.87083333 C10.5944443,5.79694408 10.5380559,5.74055575 10.4641667,5.70166667 C10.3902774,5.66277758 10.3066671,5.64333333 10.2133333,5.64333333 L7.78666667,5.64333333 C7.64666597,5.64333333 7.53194489,5.68805511 7.4425,5.7775 C7.35305511,5.86694489 7.30833333,5.97777712 7.30833333,6.11 C7.30833333,6.1566669 7.31222218,6.19166655 7.32,6.215 L7.99666667,9.73833333 C8.02777793,9.89388967 8.11138821,10.028055 8.2475,10.1408333 C8.38361179,10.2536117 8.52944367,10.31 8.685,10.31 Z M8.125,12.6433333 L9.875,12.6433333 C9.95277817,12.6433333 10.020833,12.614167 10.0791667,12.5558333 C10.1375003,12.4974997 10.1666667,12.4294448 10.1666667,12.3516667 L10.1666667,11.7683333 C10.1666667,11.6905552 10.1375003,11.6225003 10.0791667,11.5641667 C10.020833,11.505833 9.95277817,11.4766667 9.875,11.4766667 L8.125,11.4766667 C8.04722183,11.4766667 7.97916696,11.505833 7.92083333,11.5641667 C7.86249971,11.6225003 7.83333333,11.6905552 7.83333333,11.7683333 L7.83333333,12.3516667 C7.83333333,12.4294448 7.86249971,12.4974997 7.92083333,12.5558333 C7.97916696,12.614167 8.04722183,12.6433333 8.125,12.6433333 Z" fill-rule="evenodd"></path>
</svg>