<?xml version="1.0" encoding="UTF-8"?>
<svg width="14px" height="14px" viewBox="0 0 14 14" version="1.1" xmlns="http://www.w3.org/2000/svg" xmlns:xlink="http://www.w3.org/1999/xlink">
  <path d="M7,13.685 C6.74333205,13.685 6.45555715,13.6655557 6.13666667,13.6266667 L5.69333333,11.865 L5.635,11.8416667 C5.25388698,11.7327772 4.88833508,11.5811121 4.53833333,11.3866667 L4.48,11.3516667 L2.91666667,12.2966667 C2.44999767,11.9233315 2.04555727,11.5150022 1.70333333,11.0716667 L2.63666667,9.50833333 L2.60166667,9.45 C2.40722125,9.09999825 2.25944495,8.7383352 2.15833333,8.365 L2.135,8.295 L0.373333333,7.85166667 C0.326666433,7.52499837 0.303333333,7.23722347 0.303333333,6.98833333 C0.303333333,6.73166538 0.326666433,6.44777933 0.373333333,6.13666667 L2.135,5.69333333 L2.15833333,5.62333333 C2.25944495,5.24999813 2.40722125,4.88833508 2.60166667,4.53833333 L2.63666667,4.48 L1.70333333,2.91666667 C2.06889072,2.44221985 2.47721997,2.0338906 2.92833333,1.69166667 L4.48,2.625 L4.53833333,2.60166667 C4.88833508,2.40722125 5.25388698,2.2555561 5.635,2.14666667 L5.69333333,2.135 L6.13666667,0.361666667 C6.47111278,0.322777583 6.75888768,0.303333333 7,0.303333333 C7.25666795,0.303333333 7.54444285,0.322777583 7.86333333,0.361666667 L8.30666667,2.135 L8.365,2.14666667 C8.74611302,2.2555561 9.11166492,2.40722125 9.46166667,2.60166667 L9.52,2.625 L11.0833333,1.69166667 C11.5577801,2.06500187 11.9622206,2.47333112 12.2966667,2.91666667 L11.3633333,4.48 L11.3983333,4.53833333 C11.5927788,4.88055727 11.7444439,5.24222032 11.8533333,5.62333333 L11.865,5.69333333 L13.6383333,6.13666667 C13.6772224,6.47111278 13.6966667,6.75499883 13.6966667,6.98833333 C13.6966667,7.2527791 13.6772224,7.540554 13.6383333,7.85166667 L11.865,8.295 L11.8533333,8.365 C11.7366661,8.74611302 11.5850009,9.10777607 11.3983333,9.45 L11.3633333,9.50833333 L12.2966667,11.0716667 C11.9233315,11.5461135 11.5188911,11.9544427 11.0833333,12.2966667 L9.52,11.3516667 L9.46166667,11.3866667 C9.11944273,11.5811121 8.75389083,11.7327772 8.365,11.8416667 L8.30666667,11.865 L7.86333333,13.6266667 C7.52888722,13.6655557 7.24111232,13.685 7,13.685 Z M7,9.49666667 C7.69222568,9.49666667 8.28333088,9.25166912 8.77333333,8.76166667 C9.26333578,8.27166422 9.50833333,7.68250344 9.50833333,6.99416667 C9.50833333,6.30582989 9.26333578,5.71666912 8.77333333,5.22666667 C8.28333088,4.73666422 7.69222568,4.49166667 7,4.49166667 C6.30777432,4.49166667 5.71666912,4.73666422 5.22666667,5.22666667 C4.73666422,5.71666912 4.49166667,6.30582989 4.49166667,6.99416667 C4.49166667,7.68250344 4.73666422,8.27166422 5.22666667,8.76166667 C5.71666912,9.25166912 6.30777432,9.49666667 7,9.49666667 Z" fill-rule="evenodd"></path>
</svg>