<svg width="12" height="13" viewBox="0 0 12 13" version="1.1" xmlns="http://www.w3.org/2000/svg" xmlns:xlink="http://www.w3.org/1999/xlink">
<g>
<path id="path0_fill" fill-rule="evenodd" d="M 10.8335 12L 7.667 12C 7.0235 12 6.5 11.4389 6.5 10.7496L 6.5 4.75016C 6.5 4.06038 7.0235 3.49975 7.667 3.49975L 10.8335 3.49975C 11.477 3.49975 12 4.06038 12 4.75016L 12 10.7496C 12 11.4389 11.477 12 10.8335 12ZM 11 4.75016C 11 4.607 10.912 4.49988 10.8335 4.49988L 7.667 4.49988C 7.588 4.49988 7.5 4.607 7.5 4.75016L 7.5 10.7496C 7.5 10.8928 7.588 10.9999 7.667 10.9999L 10.8335 10.9999C 10.912 10.9999 11 10.8928 11 10.7496L 11 4.75016Z"/>
<path id="path1_fill" d="M 7.501 1.01915C 7.4855 1.01464 7.4645 1.01064 7.4365 1.00713C 7.3935 1.00213 7.3475 1.00013 7.3005 1.00013L 1.2 1.00013C 1.092 1.00013 1 1.09773 1 1.21437L 1 9.78551C 1 9.90164 1.092 9.99975 1.2 9.99975L 5.5 9.99975C 5.776 9.99975 6 10.2235 6 10.4998C 6 10.7761 5.776 10.9999 5.5 10.9999L 1.2 10.9999C 0.5385 10.9999 0 10.4548 0 9.78551L 0 1.21437C 0 0.544612 0.5385 0 1.2 0L 7.3005 0C 7.391 0 7.4785 0.00500553 7.561 0.0150168L 7.5615 0.0150168L 7.5625 0.0150168C 8.15 0.0896007 8.5005 0.458015 8.5005 1.00013L 8.50113 2.39125C 8.50113 2.66725 8.27737 2.89125 8.00106 2.89125C 7.72475 2.89125 7.501 2.66725 7.501 2.39125L 7.501 1.01915Z"/>
</g>
</svg>
