<?xml version="1.0" encoding="UTF-8"?>
<svg width="12px" height="12px" viewBox="0 0 12 12" version="1.1" xmlns="http://www.w3.org/2000/svg" xmlns:xlink="http://www.w3.org/1999/xlink">
  <g id="Page-1" stroke="none" stroke-width="1" fill-rule="evenodd">
    <path d="M0.263361503,8.54168799 C0.426484821,8.70514399 0.651667206,8.80640999 0.901023565,8.80623399 L8.92336856,8.80644799 L7.27517399,10.45802 C6.92328526,10.81064 6.9237053,11.38296 7.27563403,11.73562 C7.62756276,12.08826 8.19806934,12.08806 8.54997808,11.73542 L11.7369383,8.54192599 C11.9000516,8.37846999 12.0001798,8.153226 11.9999998,7.90336 C12.0002998,7.404268 11.5972069,7.00035278 11.0984862,7 L0.901509605,7 C0.402800887,7.00035278 -0.000288505556,7.404268 2.31720703e-07,7.90336 C-0.000176050174,8.153226 0.100238784,8.37822999 0.263361503,8.54168799 Z" id="path0_fill"></path>
    <path d="M11.7366383,3.45832001 C11.5735249,3.29486001 11.3483266,3.19360001 11.0989862,3.19376001 L3.0766312,3.19356001 L4.72482577,1.54198402 C5.0767345,1.18935802 5.07629446,0.617040019 4.72436573,0.264386021 C4.37243699,-0.0882695776 3.80193041,-0.0880503776 3.45004168,0.264574021 L0.263065478,3.45808001 C0.09994356,3.62154001 -0.000175818357,3.84678001 2.31792924e-07,4.09664 C-0.000288273539,4.59574 0.402800887,4.99964 0.901509605,5 L11.0984862,5 C11.5972069,4.99964 12.0002998,4.59574 11.9999998,4.09664 C12.0001798,3.84678001 11.8997716,3.62176001 11.7366383,3.45832001 Z" id="path1_fill"></path>
  </g>
</svg>