<?xml version="1.0" encoding="UTF-8"?>
<svg width="15px" height="4px" viewBox="0 0 15 4" version="1.1" xmlns="http://www.w3.org/2000/svg" xmlns:xlink="http://www.w3.org/1999/xlink">
  <path d="M2,4 C1.44888613,4 0.977779733,3.8044464 0.586666667,3.41333333 C0.1955536,3.02222027 0,2.55111387 0,2 C0,1.44888613 0.1955536,0.977779733 0.586666667,0.586666667 C0.977779733,0.1955536 1.44888613,0 2,0 C2.55111387,0 3.02222027,0.1955536 3.41333333,0.586666667 C3.8044464,0.977779733 4,1.44888613 4,2 C4,2.55111387 3.8044464,3.02222027 3.41333333,3.41333333 C3.02222027,3.8044464 2.55111387,4 2,4 Z M7.33333333,4 C6.78221947,4 6.31111307,3.8044464 5.92,3.41333333 C5.52888693,3.02222027 5.33333333,2.55111387 5.33333333,2 C5.33333333,1.44888613 5.52888693,0.977779733 5.92,0.586666667 C6.31111307,0.1955536 6.78221947,0 7.33333333,0 C7.8844472,0 8.3555536,0.1955536 8.74666667,0.586666667 C9.13777973,0.977779733 9.33333333,1.44888613 9.33333333,2 C9.33333333,2.55111387 9.13777973,3.02222027 8.74666667,3.41333333 C8.3555536,3.8044464 7.8844472,4 7.33333333,4 Z M12.6666667,4 C12.1155528,4 11.6444464,3.8044464 11.2533333,3.41333333 C10.8622203,3.02222027 10.6666667,2.55111387 10.6666667,2 C10.6666667,1.44888613 10.8622203,0.977779733 11.2533333,0.586666667 C11.6444464,0.1955536 12.1155528,0 12.6666667,0 C13.2177805,0 13.6888869,0.1955536 14.08,0.586666667 C14.4711131,0.977779733 14.6666667,1.44888613 14.6666667,2 C14.6666667,2.55111387 14.4711131,3.02222027 14.08,3.41333333 C13.6888869,3.8044464 13.2177805,4 12.6666667,4 Z" fill-rule="evenodd"></path>
</svg>