<svg width="10" height="10" viewBox="0 0 10 10" version="1.1" xmlns="http://www.w3.org/2000/svg" xmlns:xlink="http://www.w3.org/1999/xlink">
<g id="Canvas">
<g id="grid-sm">
  <path id="path0_fill" fill="#EEF0F2" fill-rule="evenodd" d="M 10 0L 10 10L 0 10L 0 0L 10 0ZM 9.0625 0.0625L 9.9375 0.0625L 9.9375 0.9375L 9.0625 0.9375L 9.0625 0.0625ZM 8.0625 0.0625L 8.9375 0.0625L 8.9375 0.9375L 8.0625 0.9375L 8.0625 0.0625ZM 7.9375 0.0625L 7.0625 0.0625L 7.0625 0.9375L 7.9375 0.9375L 7.9375 0.0625ZM 7.9375 1.0625L 7.0625 1.0625L 7.0625 1.9375L 7.9375 1.9375L 7.9375 1.0625ZM 7.9375 2.0625L 7.0625 2.0625L 7.0625 2.9375L 7.9375 2.9375L 7.9375 2.0625ZM 8.0625 2.9375L 8.0625 2.0625L 8.9375 2.0625L 8.9375 2.9375L 8.0625 2.9375ZM 7.9375 3.0625L 7.0625 3.0625L 7.0625 3.9375L 7.9375 3.9375L 7.9375 3.0625ZM 8.0625 3.9375L 8.0625 3.0625L 8.9375 3.0625L 8.9375 3.9375L 8.0625 3.9375ZM 7.9375 4.0625L 7.0625 4.0625L 7.0625 4.9375L 7.9375 4.9375L 7.9375 4.0625ZM 8.0625 4.9375L 8.0625 4.0625L 8.9375 4.0625L 8.9375 4.9375L 8.0625 4.9375ZM 7.9375 5.0625L 7.0625 5.0625L 7.0625 5.9375L 7.9375 5.9375L 7.9375 5.0625ZM 8.0625 5.9375L 8.0625 5.0625L 8.9375 5.0625L 8.9375 5.9375L 8.0625 5.9375ZM 7.9375 6.0625L 7.0625 6.0625L 7.0625 6.9375L 7.9375 6.9375L 7.9375 6.0625ZM 8.0625 6.9375L 8.0625 6.0625L 8.9375 6.0625L 8.9375 6.9375L 8.0625 6.9375ZM 7.9375 7.0625L 7.0625 7.0625L 7.0625 7.9375L 7.9375 7.9375L 7.9375 7.0625ZM 8.0625 7.9375L 8.0625 7.0625L 8.9375 7.0625L 8.9375 7.9375L 8.0625 7.9375ZM 7.9375 8.0625L 7.0625 8.0625L 7.0625 8.9375L 7.9375 8.9375L 7.9375 8.0625ZM 8.0625 8.9375L 8.0625 8.0625L 8.9375 8.0625L 8.9375 8.9375L 8.0625 8.9375ZM 7.9375 9.0625L 7.0625 9.0625L 7.0625 9.9375L 7.9375 9.9375L 7.9375 9.0625ZM 8.0625 9.9375L 8.0625 9.0625L 8.9375 9.0625L 8.9375 9.9375L 8.0625 9.9375ZM 9.0625 9.9375L 9.9375 9.9375L 9.9375 9.0625L 9.0625 9.0625L 9.0625 9.9375ZM 9.0625 8.9375L 9.9375 8.9375L 9.9375 8.0625L 9.0625 8.0625L 9.0625 8.9375ZM 9.0625 7.9375L 9.9375 7.9375L 9.9375 7.0625L 9.0625 7.0625L 9.0625 7.9375ZM 9.0625 6.9375L 9.9375 6.9375L 9.9375 6.0625L 9.0625 6.0625L 9.0625 6.9375ZM 9.0625 5.9375L 9.9375 5.9375L 9.9375 5.0625L 9.0625 5.0625L 9.0625 5.9375ZM 9.0625 4.9375L 9.9375 4.9375L 9.9375 4.0625L 9.0625 4.0625L 9.0625 4.9375ZM 9.0625 3.9375L 9.9375 3.9375L 9.9375 3.0625L 9.0625 3.0625L 9.0625 3.9375ZM 9.0625 2.9375L 9.9375 2.9375L 9.9375 2.0625L 9.0625 2.0625L 9.0625 2.9375ZM 9.0625 1.9375L 9.9375 1.9375L 9.9375 1.0625L 9.0625 1.0625L 9.0625 1.9375ZM 8.9375 1.0625L 8.0625 1.0625L 8.0625 1.9375L 8.9375 1.9375L 8.9375 1.0625ZM 6.9375 9.9375L 6.9375 9.0625L 6.0625 9.0625L 6.0625 9.9375L 6.9375 9.9375ZM 5.9375 9.9375L 5.9375 9.0625L 5.0625 9.0625L 5.0625 9.9375L 5.9375 9.9375ZM 4.9375 9.9375L 4.9375 9.0625L 4.0625 9.0625L 4.0625 9.9375L 4.9375 9.9375ZM 3.9375 9.9375L 3.9375 9.0625L 3.0625 9.0625L 3.0625 9.9375L 3.9375 9.9375ZM 2.9375 9.9375L 2.9375 9.0625L 2.0625 9.0625L 2.0625 9.9375L 2.9375 9.9375ZM 1.9375 9.9375L 1.9375 9.0625L 1.0625 9.0625L 1.0625 9.9375L 1.9375 9.9375ZM 0.9375 9.9375L 0.9375 9.0625L 0.0625 9.0625L 0.0625 9.9375L 0.9375 9.9375ZM 0.0625 8.9375L 0.9375 8.9375L 0.9375 8.0625L 0.0625 8.0625L 0.0625 8.9375ZM 0.0625 7.9375L 0.9375 7.9375L 0.9375 7.0625L 0.0625 7.0625L 0.0625 7.9375ZM 0.0625 6.9375L 0.9375 6.9375L 0.9375 6.0625L 0.0625 6.0625L 0.0625 6.9375ZM 0.0625 5.9375L 0.9375 5.9375L 0.9375 5.0625L 0.0625 5.0625L 0.0625 5.9375ZM 0.0625 4.9375L 0.9375 4.9375L 0.9375 4.0625L 0.0625 4.0625L 0.0625 4.9375ZM 0.0625 3.9375L 0.9375 3.9375L 0.9375 3.0625L 0.0625 3.0625L 0.0625 3.9375ZM 0.0625 2.9375L 0.9375 2.9375L 0.9375 2.0625L 0.0625 2.0625L 0.0625 2.9375ZM 0.0625 1.9375L 0.9375 1.9375L 0.9375 1.0625L 0.0625 1.0625L 0.0625 1.9375ZM 0.0625 0.9375L 0.9375 0.9375L 0.9375 0.0625L 0.0625 0.0625L 0.0625 0.9375ZM 1.0625 0.0625L 1.0625 0.9375L 1.9375 0.9375L 1.9375 0.0625L 1.0625 0.0625ZM 2.0625 0.0625L 2.0625 0.9375L 2.9375 0.9375L 2.9375 0.0625L 2.0625 0.0625ZM 3.0625 0.0625L 3.0625 0.9375L 3.9375 0.9375L 3.9375 0.0625L 3.0625 0.0625ZM 4.0625 0.0625L 4.0625 0.9375L 4.9375 0.9375L 4.9375 0.0625L 4.0625 0.0625ZM 5.0625 0.0625L 5.0625 0.9375L 5.9375 0.9375L 5.9375 0.0625L 5.0625 0.0625ZM 6.0625 0.0625L 6.0625 0.9375L 6.9375 0.9375L 6.9375 0.0625L 6.0625 0.0625ZM 6.9375 1.0625L 6.0625 1.0625L 6.0625 1.9375L 6.9375 1.9375L 6.9375 1.0625ZM 6.9375 2.0625L 6.0625 2.0625L 6.0625 2.9375L 6.9375 2.9375L 6.9375 2.0625ZM 6.9375 3.0625L 6.0625 3.0625L 6.0625 3.9375L 6.9375 3.9375L 6.9375 3.0625ZM 6.9375 4.0625L 6.0625 4.0625L 6.0625 4.9375L 6.9375 4.9375L 6.9375 4.0625ZM 6.9375 5.0625L 6.0625 5.0625L 6.0625 5.9375L 6.9375 5.9375L 6.9375 5.0625ZM 6.9375 6.0625L 6.0625 6.0625L 6.0625 6.9375L 6.9375 6.9375L 6.9375 6.0625ZM 6.9375 7.0625L 6.0625 7.0625L 6.0625 7.9375L 6.9375 7.9375L 6.9375 7.0625ZM 6.9375 8.0625L 6.0625 8.0625L 6.0625 8.9375L 6.9375 8.9375L 6.9375 8.0625ZM 5.9375 8.9375L 5.9375 8.0625L 5.0625 8.0625L 5.0625 8.9375L 5.9375 8.9375ZM 4.9375 8.9375L 4.9375 8.0625L 4.0625 8.0625L 4.0625 8.9375L 4.9375 8.9375ZM 3.9375 8.9375L 3.9375 8.0625L 3.0625 8.0625L 3.0625 8.9375L 3.9375 8.9375ZM 2.9375 8.9375L 2.9375 8.0625L 2.0625 8.0625L 2.0625 8.9375L 2.9375 8.9375ZM 1.9375 8.9375L 1.9375 8.0625L 1.0625 8.0625L 1.0625 8.9375L 1.9375 8.9375ZM 1.0625 7.9375L 1.9375 7.9375L 1.9375 7.0625L 1.0625 7.0625L 1.0625 7.9375ZM 1.0625 6.9375L 1.9375 6.9375L 1.9375 6.0625L 1.0625 6.0625L 1.0625 6.9375ZM 1.0625 5.9375L 1.9375 5.9375L 1.9375 5.0625L 1.0625 5.0625L 1.0625 5.9375ZM 1.0625 4.9375L 1.9375 4.9375L 1.9375 4.0625L 1.0625 4.0625L 1.0625 4.9375ZM 1.0625 3.9375L 1.9375 3.9375L 1.9375 3.0625L 1.0625 3.0625L 1.0625 3.9375ZM 1.0625 2.9375L 1.9375 2.9375L 1.9375 2.0625L 1.0625 2.0625L 1.0625 2.9375ZM 1.0625 1.9375L 1.9375 1.9375L 1.9375 1.0625L 1.0625 1.0625L 1.0625 1.9375ZM 2.0625 1.0625L 2.0625 1.9375L 2.9375 1.9375L 2.9375 1.0625L 2.0625 1.0625ZM 3.0625 1.0625L 3.0625 1.9375L 3.9375 1.9375L 3.9375 1.0625L 3.0625 1.0625ZM 4.0625 1.0625L 4.0625 1.9375L 4.9375 1.9375L 4.9375 1.0625L 4.0625 1.0625ZM 5.0625 1.0625L 5.0625 1.9375L 5.9375 1.9375L 5.9375 1.0625L 5.0625 1.0625ZM 5.9375 2.0625L 5.0625 2.0625L 5.0625 2.9375L 5.9375 2.9375L 5.9375 2.0625ZM 5.9375 3.0625L 5.0625 3.0625L 5.0625 3.9375L 5.9375 3.9375L 5.9375 3.0625ZM 5.9375 4.0625L 5.0625 4.0625L 5.0625 4.9375L 5.9375 4.9375L 5.9375 4.0625ZM 5.9375 5.0625L 5.0625 5.0625L 5.0625 5.9375L 5.9375 5.9375L 5.9375 5.0625ZM 5.9375 6.0625L 5.0625 6.0625L 5.0625 6.9375L 5.9375 6.9375L 5.9375 6.0625ZM 5.9375 7.0625L 5.0625 7.0625L 5.0625 7.9375L 5.9375 7.9375L 5.9375 7.0625ZM 4.9375 7.9375L 4.9375 7.0625L 4.0625 7.0625L 4.0625 7.9375L 4.9375 7.9375ZM 3.9375 7.9375L 3.9375 7.0625L 3.0625 7.0625L 3.0625 7.9375L 3.9375 7.9375ZM 2.9375 7.9375L 2.9375 7.0625L 2.0625 7.0625L 2.0625 7.9375L 2.9375 7.9375ZM 2.0625 6.9375L 2.9375 6.9375L 2.9375 6.0625L 2.0625 6.0625L 2.0625 6.9375ZM 2.0625 5.9375L 2.9375 5.9375L 2.9375 5.0625L 2.0625 5.0625L 2.0625 5.9375ZM 2.0625 4.9375L 2.9375 4.9375L 2.9375 4.0625L 2.0625 4.0625L 2.0625 4.9375ZM 2.0625 3.9375L 2.9375 3.9375L 2.9375 3.0625L 2.0625 3.0625L 2.0625 3.9375ZM 2.0625 2.9375L 2.9375 2.9375L 2.9375 2.0625L 2.0625 2.0625L 2.0625 2.9375ZM 3.0625 2.0625L 3.0625 2.9375L 3.9375 2.9375L 3.9375 2.0625L 3.0625 2.0625ZM 4.0625 2.0625L 4.0625 2.9375L 4.9375 2.9375L 4.9375 2.0625L 4.0625 2.0625ZM 4.9375 3.0625L 4.0625 3.0625L 4.0625 3.9375L 4.9375 3.9375L 4.9375 3.0625ZM 4.9375 4.0625L 4.0625 4.0625L 4.0625 4.9375L 4.9375 4.9375L 4.9375 4.0625ZM 4.9375 5.0625L 4.0625 5.0625L 4.0625 5.9375L 4.9375 5.9375L 4.9375 5.0625ZM 4.9375 6.0625L 4.0625 6.0625L 4.0625 6.9375L 4.9375 6.9375L 4.9375 6.0625ZM 3.9375 6.9375L 3.9375 6.0625L 3.0625 6.0625L 3.0625 6.9375L 3.9375 6.9375ZM 3.0625 5.9375L 3.9375 5.9375L 3.9375 5.0625L 3.0625 5.0625L 3.0625 5.9375ZM 3.0625 4.9375L 3.9375 4.9375L 3.9375 4.0625L 3.0625 4.0625L 3.0625 4.9375ZM 3.0625 3.9375L 3.9375 3.9375L 3.9375 3.0625L 3.0625 3.0625L 3.0625 3.9375Z"/>
</g>
</g>
</svg>
