<?xml version="1.0" encoding="UTF-8"?>
<svg width="12px" height="12px" viewBox="0 0 12 12" version="1.1" xmlns="http://www.w3.org/2000/svg" xmlns:xlink="http://www.w3.org/1999/xlink">
  <g>
    <path d="M1.84615,2.30769 C1.84615,2.05278 2.05281,1.84615 2.30769,1.84615 L4.61538,1.84615 C4.87027,1.84615 5.07692,2.05278 5.07692,2.30769 C5.07692,2.5626 4.87027,2.76923 4.61538,2.76923 L3.42188,2.76923 L6,5.34733 L8.57812,2.76923 L7.38462,2.76923 C7.12973,2.76923 6.92308,2.5626 6.92308,2.30769 C6.92308,2.05278 7.12973,1.84615 7.38462,1.84615 L9.69231,1.84615 C9.94719,1.84615 10.1538,2.05278 10.1538,2.30769 L10.1538,4.61538 C10.1538,4.8703 9.94719,5.07692 9.69231,5.07692 C9.43742,5.07692 9.23077,4.8703 9.23077,4.61538 L9.23077,3.42193 L6.65264,6 L9.23077,8.57807 L9.23077,7.38462 C9.23077,7.1297 9.43742,6.92308 9.69231,6.92308 C9.94719,6.92308 10.1538,7.1297 10.1538,7.38462 L10.1538,9.69231 C10.1538,9.94722 9.94719,10.1538 9.69231,10.1538 L7.38462,10.1538 C7.12973,10.1538 6.92308,9.94722 6.92308,9.69231 C6.92308,9.4374 7.12973,9.23077 7.38462,9.23077 L8.57812,9.23077 L6,6.65267 L3.42188,9.23077 L4.61538,9.23077 C4.87027,9.23077 5.07692,9.4374 5.07692,9.69231 C5.07692,9.94722 4.87027,10.1538 4.61538,10.1538 L2.30769,10.1538 C2.05281,10.1538 1.84615,9.94722 1.84615,9.69231 L1.84615,7.38462 C1.84615,7.1297 2.05281,6.92308 2.30769,6.92308 C2.56258,6.92308 2.76923,7.1297 2.76923,7.38462 L2.76923,8.57807 L5.34736,6 L2.76923,3.42193 L2.76923,4.61538 C2.76923,4.8703 2.56258,5.07692 2.30769,5.07692 C2.05281,5.07692 1.84615,4.8703 1.84615,4.61538 L1.84615,2.30769 Z" id="path0_fill"></path>
    <path d="M0,0.461538 C0,0.206627 0.206656,0 0.461538,0 L11.5385,0 C11.7933,0 12,0.206627 12,0.461538 L12,11.5385 C12,11.7934 11.7933,12 11.5385,12 L0.461538,12 C0.206656,12 0,11.7934 0,11.5385 L0,0.461538 Z M0.923077,0.923077 L0.923077,11.0769 L11.0769,11.0769 L11.0769,0.923077 L0.923077,0.923077 Z" id="path1_fill"></path>
  </g>
</svg>