<?xml version="1.0" encoding="UTF-8"?>
<svg width="12px" height="12px" viewBox="0 0 12 12" version="1.1" xmlns="http://www.w3.org/2000/svg" xmlns:xlink="http://www.w3.org/1999/xlink">
    <g id="Artboard-2" stroke="none" stroke-width="1" fill="none" fill-rule="evenodd">
        <path d="M3.60393013,10.7689001 L1.23116013,8.39609011 C0.740587135,7.90552011 0.742013135,7.10565011 1.23434013,6.61333011 L6.59214013,1.25552011 C7.08476013,0.762902112 7.88433013,0.761774112 8.37490013,1.25234011 L10.7477001,3.62512011 C11.2382001,4.11569011 11.2371001,4.91526011 10.7445001,5.40788011 L5.38669013,10.7657001 C4.89437013,11.2580001 4.09450013,11.2594001 3.60393013,10.7689001 Z M3.41952013,0.103008113 C3.55562013,-0.0343359875 3.78908013,-0.0343360875 3.92568013,0.103008113 L4.75770013,0.941232113 C4.89479013,1.07907011 4.89479013,1.30285011 4.75770013,1.44019011 L3.92568013,2.27867011 C3.85713013,2.34746011 3.76822013,2.38174011 3.67831013,2.38174011 C3.58890013,2.38174011 3.49949013,2.34746011 3.43144013,2.27891011 C3.29136013,2.13760011 3.29981013,1.91134011 3.44038013,1.77002011 L3.62119013,1.58896011 L3.37531013,1.65975011 C3.25709013,1.69402011 3.14185013,1.73599011 3.03009013,1.78517011 C2.97992013,1.80752011 2.93025013,1.83112011 2.88157013,1.85620011 C2.25718013,2.17833011 1.77387013,2.73540011 1.63975013,3.41120011 L1.59703013,3.62554011 L1.75152013,3.47081011 C1.86874013,3.35283011 2.03912013,3.32129011 2.17522013,3.39158011 C2.20602013,3.40747011 2.23483013,3.42858011 2.26116013,3.45516011 C2.39825013,3.59300011 2.39825013,3.81653011 2.26116013,3.95462011 L1.42964013,4.79259011 C1.36109013,4.86139011 1.27168013,4.89566011 1.18177013,4.89566011 C1.09236013,4.89566011 1.00345013,4.86139011 0.934899135,4.79259011 L0.102884135,3.95462011 C-0.0342116653,3.81653011 -0.0342118653,3.59300011 0.102387135,3.45516011 C0.239484135,3.31781011 0.460527135,3.31781011 0.597623135,3.45516011 L0.859397135,3.71991011 L0.880259135,3.59176011 L0.898142135,3.49217011 C0.919501135,3.38164011 0.946821135,3.27311011 0.979108135,3.16706011 C1.20313013,2.42793011 1.67850013,1.79908011 2.30536013,1.38257011 C2.54528013,1.22288011 2.80805013,1.09422011 3.08721013,1.00258011 C3.22232013,0.958121113 3.36140013,0.922357113 3.50347013,0.896030113 L3.64454013,0.872188113 L3.69719013,0.863495113 L3.57947013,0.752973113 L3.41853013,0.601224113 C3.28242013,0.463879113 3.28242013,0.240850113 3.41952013,0.103008113 Z M11.8970001,8.58048011 C11.7592001,8.71758011 11.5361001,8.71758011 11.3988001,8.58147011 L11.2470001,8.42053011 L11.1365001,8.30281011 L11.1278001,8.35546011 L11.1040001,8.49653011 C11.0776001,8.63860011 11.0419001,8.77768011 10.9974001,8.91279011 C10.9058001,9.19195011 10.7771001,9.45472011 10.6174001,9.69464011 C10.2009001,10.3215001 9.57207013,10.7969001 8.83294013,11.0209001 C8.72689013,11.0532001 8.61836013,11.0805001 8.50783013,11.1019001 L8.40824013,11.1197001 L8.28009013,11.1406001 L8.54484013,11.4024001 C8.68219013,11.5395001 8.68219013,11.7605001 8.54484013,11.8976001 C8.40700013,12.0342001 8.18347013,12.0342001 8.04538013,11.8971001 L7.20741013,11.0651001 C7.13861013,10.9966001 7.10434013,10.9076001 7.10434013,10.8182001 C7.10434013,10.7283001 7.13861013,10.6389001 7.20741013,10.5704001 L8.04538013,9.73884011 C8.18347013,9.60175011 8.40700013,9.60175011 8.54484013,9.73884011 C8.57142013,9.76517011 8.59253013,9.79398011 8.60842013,9.82478011 C8.67871013,9.96088011 8.64717013,10.1313001 8.52919013,10.2485001 L8.37446013,10.4030001 L8.58880013,10.3602001 C9.26460013,10.2261001 9.82167013,9.74282011 10.1438001,9.11843011 C10.1689001,9.06975011 10.1925001,9.02008011 10.2148001,8.96991011 C10.2640001,8.85815011 10.3060001,8.74291011 10.3403001,8.62469011 L10.4110001,8.37881011 L10.2300001,8.55962011 C10.0887001,8.70019011 9.86240013,8.70864011 9.72109013,8.56856011 C9.65254013,8.50051011 9.61826013,8.41110011 9.61826013,8.32169011 C9.61826013,8.23178011 9.65254013,8.14287011 9.72133013,8.07432011 L10.5598001,7.24230011 C10.6972001,7.10521011 10.9209001,7.10521011 11.0588001,7.24230011 L11.8970001,8.07432011 C12.0343001,8.21092011 12.0343001,8.44438011 11.8970001,8.58048011 Z M10.1513001,4.81468011 C10.3156001,4.65038011 10.3158001,4.38385011 10.1524001,4.22043011 L7.77959013,1.84766011 C7.61616013,1.68423011 7.34964013,1.68441011 7.18534013,1.84872011 L1.82753013,7.20652011 C1.66322013,7.37083011 1.66305013,7.63735011 1.82647013,7.80078011 L4.19924013,10.1735001 C4.36267013,10.3370001 4.62919013,10.3368001 4.79350013,10.1725001 L10.1513001,4.81468011 Z" id="rotate-device" fill="#525253" fill-rule="nonzero"></path>
    </g>
</svg>