<?xml version="1.0" encoding="UTF-8"?>
<svg width="15px" height="15px" viewBox="0 0 15 15" version="1.1" xmlns="http://www.w3.org/2000/svg" xmlns:xlink="http://www.w3.org/1999/xlink">
  <path d="M12.1683333,13.86 L8.96,10.6633333 C8.03443982,11.2622252 7.01944997,11.5616667 5.915,11.5616667 L5.845,11.55 L5.83333333,11.5616667 C5.211108,11.5616667 4.60833625,11.4644454 4.025,11.27 C3.44166375,11.0755546 2.916669,10.8013907 2.45,10.4475 C1.983331,10.0936093 1.57305733,9.68333567 1.21916667,9.21666667 C0.865276008,8.74999767 0.591112083,8.22500292 0.396666667,7.64166667 C0.20222125,7.05833042 0.105,6.45555867 0.105,5.83333333 C0.105,5.05555167 0.25666515,4.31278132 0.56,3.605 C0.86333485,2.89721868 1.26971968,2.28861366 1.77916667,1.77916667 C2.28861366,1.26971968 2.89721868,0.86333485 3.605,0.56 C4.31278132,0.25666515 5.05555167,0.105 5.83333333,0.105 C6.611115,0.105 7.35388535,0.25666515 8.06166667,0.56 C8.76944798,0.86333485 9.37805301,1.26971968 9.8875,1.77916667 C10.396947,2.28861366 10.8033318,2.89721868 11.1066667,3.605 C11.4100015,4.31278132 11.5616667,5.05555167 11.5616667,5.83333333 L11.55,5.85666667 L11.5616667,5.915 C11.5616667,7.01167215 11.2583364,8.03055085 10.6516667,8.97166667 L13.86,12.1683333 C14.0388898,12.3472231 14.1283333,12.5144437 14.1283333,12.67 C14.1283333,12.8100007 14.0388898,12.9811101 13.86,13.1833333 L13.1716667,13.86 C12.9616656,14.0155563 12.7788897,14.0933333 12.6233333,14.0933333 C12.4755548,14.0933333 12.3238897,14.0155563 12.1683333,13.86 Z M5.83333333,9.59 C6.5177812,9.59 7.1477749,9.42277945 7.72333333,9.08833333 C8.29889177,8.75388722 8.75388722,8.29889177 9.08833333,7.72333333 C9.42277945,7.1477749 9.59,6.5177812 9.59,5.83333333 C9.59,5.14888547 9.42277945,4.51889177 9.08833333,3.94333333 C8.75388722,3.3677749 8.29889177,2.91277945 7.72333333,2.57833333 C7.1477749,2.24388722 6.5177812,2.07666667 5.83333333,2.07666667 C5.14888547,2.07666667 4.51889177,2.24388722 3.94333333,2.57833333 C3.3677749,2.91277945 2.91277945,3.3677749 2.57833333,3.94333333 C2.24388722,4.51889177 2.07666667,5.14888547 2.07666667,5.83333333 C2.07666667,6.34666923 2.17583234,6.83471991 2.37416667,7.2975 C2.57250099,7.76028009 2.83888722,8.15888722 3.17333333,8.49333333 C3.50777945,8.82777945 3.90638657,9.09416567 4.36916667,9.2925 C4.83194676,9.49083433 5.31999743,9.59 5.83333333,9.59 Z" fill-rule="evenodd"></path>
</svg>